<svg xmlns="http://www.w3.org/2000/svg" viewBox="0 0 200 200" fill="none">
  <defs>
    <radialGradient id="heartGrad" cx="35%" cy="30%" r="70%">
      <stop offset="0%" stop-color="#ffb6cd"/>
      <stop offset="100%" stop-color="#ee6f96"/>
    </radialGradient>
  </defs>
  <path d="M100 165
           C 65 140, 30 110, 30 80
           C 30 55, 50 40, 70 40
           C 85 40, 95 50, 100 60
           C 105 50, 115 40, 130 40
           C 150 40, 170 55, 170 80
           C 170 110, 135 140, 100 165 Z"
        fill="url(#heartGrad)"/>
  <!-- ハイライト -->
  <ellipse cx="70" cy="65" rx="14" ry="9" fill="#ffd5e2" opacity="0.7" transform="rotate(-25 70 65)"/>
  <!-- 上の閃き線 -->
  <g stroke="#ff8aab" stroke-width="4" stroke-linecap="round">
    <line x1="130" y1="25" x2="135" y2="14"/>
    <line x1="155" y1="38" x2="167" y2="32"/>
    <line x1="170" y1="60" x2="183" y2="62"/>
  </g>
</svg>
