<svg xmlns="http://www.w3.org/2000/svg" viewBox="532 214 206 316" fill="none">
  <rect x="540" y="222" width="190" height="300" rx="34" fill="#74d6ad"></rect>
  <rect x="566" y="250" width="138" height="74" rx="16" fill="#9ee6c8"></rect>
  <line x1="640" y1="262" x2="676" y2="262" stroke="#ffffff" stroke-width="8" stroke-linecap="round" opacity="0.8"></line>
  <line x1="630" y1="282" x2="688" y2="282" stroke="#ffffff" stroke-width="8" stroke-linecap="round" opacity="0.6"></line>
  <rect x="566" y="346" width="64" height="64" rx="16" fill="#5fc99a"></rect>
  <rect x="640" y="346" width="64" height="64" rx="16" fill="#5fc99a"></rect>
  <rect x="566" y="424" width="64" height="64" rx="16" fill="#5fc99a"></rect>
  <rect x="640" y="424" width="64" height="64" rx="16" fill="#f5c64b"></rect>
  <g stroke="#ffffff" stroke-width="9" stroke-linecap="round">
    <line x1="598" y1="362" x2="598" y2="394"></line><line x1="582" y1="378" x2="614" y2="378"></line>
    <line x1="656" y1="378" x2="688" y2="378"></line>
    <line x1="586" y1="444" x2="610" y2="468"></line><line x1="610" y1="444" x2="586" y2="468"></line>
    <line x1="656" y1="450" x2="688" y2="450"></line><line x1="656" y1="462" x2="688" y2="462"></line>
  </g>
</svg>