<svg xmlns="http://www.w3.org/2000/svg" viewBox="0 0 240 200" fill="none">
  <!-- 4芒星形状 -->
  <g>
    <!-- 黄色（大） -->
    <path d="M120 30 L128 60 L158 68 L128 76 L120 106 L112 76 L82 68 L112 60 Z" fill="#ffd95e"/>
    <!-- ピンク（中・右） -->
    <path d="M195 75 L200 91 L216 96 L200 101 L195 117 L190 101 L174 96 L190 91 Z" fill="#ff9ec0"/>
    <!-- ラベンダー（中・左下） -->
    <path d="M55 130 L60 146 L76 151 L60 156 L55 172 L50 156 L34 151 L50 146 Z" fill="#c9b5ff"/>
    <!-- ミント（小・右下） -->
    <path d="M180 150 L184 161 L195 165 L184 169 L180 180 L176 169 L165 165 L176 161 Z" fill="#9ce0c9"/>
    <!-- ピンク小（中央下） -->
    <path d="M130 145 L133 153 L141 156 L133 159 L130 167 L127 159 L119 156 L127 153 Z" fill="#ffb6d1"/>
    <!-- ラベンダー小（上） -->
    <path d="M60 50 L62.5 56 L69 58 L62.5 60 L60 66 L57.5 60 L51 58 L57.5 56 Z" fill="#d9c9ff"/>
  </g>
</svg>
