<svg xmlns="http://www.w3.org/2000/svg" viewBox="0 0 240 160" fill="none">
  <path d="M30 80
           C 30 50, 70 50, 70 80
           C 70 110, 30 110, 30 80
           M70 80
           C 70 50, 110 50, 110 80
           C 110 110, 70 110, 70 80
           M110 80
           C 110 50, 150 50, 150 80
           C 150 110, 110 110, 110 80
           M150 80
           C 150 50, 190 50, 190 80
           C 190 110, 150 110, 150 80
           M190 80
           C 190 50, 215 50, 215 80"
        stroke="#ff9ec0" stroke-width="10" stroke-linecap="round" fill="none"/>
</svg>
