<svg xmlns="http://www.w3.org/2000/svg" viewBox="0 0 320 80" fill="none">
  <g fill="#ffb5cc">
    <!-- 左側のドット -->
    <circle cx="20" cy="40" r="3"/>
    <circle cx="40" cy="40" r="3"/>
    <circle cx="60" cy="40" r="3"/>
    <circle cx="80" cy="40" r="3"/>
    <circle cx="100" cy="40" r="3"/>
    <circle cx="120" cy="40" r="3"/>
    <!-- 右側のドット -->
    <circle cx="200" cy="40" r="3"/>
    <circle cx="220" cy="40" r="3"/>
    <circle cx="240" cy="40" r="3"/>
    <circle cx="260" cy="40" r="3"/>
    <circle cx="280" cy="40" r="3"/>
    <circle cx="300" cy="40" r="3"/>
  </g>
  <!-- 中央のハート -->
  <path d="M160 53
           C 148 45, 140 38, 140 30
           C 140 24, 145 21, 150 21
           C 154 21, 158 24, 160 28
           C 162 24, 166 21, 170 21
           C 175 21, 180 24, 180 30
           C 180 38, 172 45, 160 53 Z"
        fill="#ff7aa8"/>
</svg>
