<svg xmlns="http://www.w3.org/2000/svg" viewBox="338 238 444 294" fill="none">
  <defs>
    <clipPath id="barClip2"><rect x="380" y="486" width="244" height="30" rx="15"></rect></clipPath>
  </defs>
  <rect x="350" y="250" width="420" height="270" rx="22" fill="#ffffff"></rect>
  <path d="M350 272 Q350 250 372 250 L748 250 Q770 250 770 272 L770 296 L350 296 Z" fill="#b3a9f0"></path>
  <circle cx="382" cy="273" r="7" fill="#f3f1fc"></circle>
  <circle cx="406" cy="273" r="7" fill="#f3f1fc"></circle>
  <circle cx="430" cy="273" r="7" fill="#f3f1fc"></circle>
  <rect x="384" y="338" width="150" height="120" rx="16" fill="#e6e1f8"></rect>
  <rect x="556" y="346" width="178" height="18" rx="9" fill="#e6e1f8"></rect>
  <rect x="556" y="382" width="150" height="18" rx="9" fill="#ece9fa"></rect>
  <rect x="556" y="418" width="120" height="18" rx="9" fill="#ece9fa"></rect>
  <rect x="380" y="486" width="244" height="30" rx="15" fill="#9ee6c8"></rect>
  <g clip-path="url(#barClip2)" stroke="#cdf3e2" stroke-width="14">
    <line x1="370" y1="520" x2="410" y2="476"></line><line x1="410" y1="520" x2="450" y2="476"></line>
    <line x1="450" y1="520" x2="490" y2="476"></line><line x1="490" y1="520" x2="530" y2="476"></line>
    <line x1="530" y1="520" x2="570" y2="476"></line><line x1="570" y1="520" x2="610" y2="476"></line>
  </g>
</svg>